<mxfile host="Electron" modified="2024-05-27T14:52:10.441Z" agent="Mozilla/5.0 (Windows NT 10.0; Win64; x64) AppleWebKit/537.36 (KHTML, like Gecko) draw.io/24.4.8 Chrome/124.0.6367.207 Electron/30.0.6 Safari/537.36" etag="dT1mHvO3FrAez2Qld1h3" version="24.4.8" type="device">
  <diagram name="第 1 页" id="AZ5YKaPfMmqDCqDRNwK1">
    <mxGraphModel dx="1156" dy="1040" grid="1" gridSize="10" guides="1" tooltips="1" connect="1" arrows="1" fold="1" page="1" pageScale="1" pageWidth="827" pageHeight="1169" math="0" shadow="0">
      <root>
        <mxCell id="0" />
        <mxCell id="1" parent="0" />
        <mxCell id="Ya21m_2HcjdQh0_R0l_v-2" value="" style="verticalLabelPosition=bottom;verticalAlign=top;html=1;shape=mxgraph.basic.rect;fillColor2=none;strokeWidth=1;size=20;indent=5;" vertex="1" parent="1">
          <mxGeometry x="180" y="215" width="360" height="440" as="geometry" />
        </mxCell>
        <mxCell id="Ya21m_2HcjdQh0_R0l_v-1" value="" style="verticalLabelPosition=bottom;verticalAlign=top;html=1;shadow=0;dashed=0;strokeWidth=1;shape=mxgraph.android.phone2;strokeColor=#c0c0c0;" vertex="1" parent="1">
          <mxGeometry x="250" y="240" width="200" height="390" as="geometry" />
        </mxCell>
        <mxCell id="Ya21m_2HcjdQh0_R0l_v-3" value="" style="strokeWidth=1;html=1;shadow=0;dashed=0;shape=mxgraph.android.contextual_action_bar_landscape_white;fillColor=#E6E6E6;" vertex="1" parent="1">
          <mxGeometry x="260" y="300" width="180" height="30" as="geometry" />
        </mxCell>
        <mxCell id="Ya21m_2HcjdQh0_R0l_v-4" value="Action" style="shape=transparent;align=left;fontStyle=1;whiteSpace=wrap;html=1;" vertex="1" parent="Ya21m_2HcjdQh0_R0l_v-3">
          <mxGeometry x="22.5" width="56.25" height="30" as="geometry" />
        </mxCell>
        <mxCell id="Ya21m_2HcjdQh0_R0l_v-15" value="" style="strokeWidth=1;html=1;shadow=0;dashed=0;shape=mxgraph.android.contextual_action_bar_landscape_white;fillColor=#E6E6E6;" vertex="1" parent="1">
          <mxGeometry x="260" y="330" width="180" height="30" as="geometry" />
        </mxCell>
        <mxCell id="Ya21m_2HcjdQh0_R0l_v-16" value="Action" style="shape=transparent;align=left;fontStyle=1;whiteSpace=wrap;html=1;" vertex="1" parent="Ya21m_2HcjdQh0_R0l_v-15">
          <mxGeometry x="22.5" width="56.25" height="30" as="geometry" />
        </mxCell>
        <mxCell id="Ya21m_2HcjdQh0_R0l_v-17" value="" style="strokeWidth=1;html=1;shadow=0;dashed=0;shape=mxgraph.android.contextual_action_bar_landscape_white;fillColor=#E6E6E6;" vertex="1" parent="1">
          <mxGeometry x="260" y="360" width="180" height="30" as="geometry" />
        </mxCell>
        <mxCell id="Ya21m_2HcjdQh0_R0l_v-18" value="Action" style="shape=transparent;align=left;fontStyle=1;whiteSpace=wrap;html=1;" vertex="1" parent="Ya21m_2HcjdQh0_R0l_v-17">
          <mxGeometry x="22.5" width="56.25" height="30" as="geometry" />
        </mxCell>
        <mxCell id="Ya21m_2HcjdQh0_R0l_v-19" value="" style="strokeWidth=1;html=1;shadow=0;dashed=0;shape=mxgraph.android.contextual_action_bar_landscape_white;fillColor=#E6E6E6;" vertex="1" parent="1">
          <mxGeometry x="260" y="390" width="180" height="30" as="geometry" />
        </mxCell>
        <mxCell id="Ya21m_2HcjdQh0_R0l_v-20" value="Action" style="shape=transparent;align=left;fontStyle=1;whiteSpace=wrap;html=1;" vertex="1" parent="Ya21m_2HcjdQh0_R0l_v-19">
          <mxGeometry x="22.5" width="56.25" height="30" as="geometry" />
        </mxCell>
        <mxCell id="Ya21m_2HcjdQh0_R0l_v-21" value="" style="strokeWidth=1;html=1;shadow=0;dashed=0;shape=mxgraph.android.contextual_action_bar_landscape_white;fillColor=#E6E6E6;" vertex="1" parent="1">
          <mxGeometry x="260" y="420" width="180" height="30" as="geometry" />
        </mxCell>
        <mxCell id="Ya21m_2HcjdQh0_R0l_v-22" value="Action" style="shape=transparent;align=left;fontStyle=1;whiteSpace=wrap;html=1;" vertex="1" parent="Ya21m_2HcjdQh0_R0l_v-21">
          <mxGeometry x="22.5" width="56.25" height="30" as="geometry" />
        </mxCell>
        <mxCell id="Ya21m_2HcjdQh0_R0l_v-23" value="" style="strokeWidth=1;html=1;shadow=0;dashed=0;shape=mxgraph.android.contextual_action_bar_landscape_white;fillColor=#E6E6E6;" vertex="1" parent="1">
          <mxGeometry x="260" y="450" width="180" height="30" as="geometry" />
        </mxCell>
        <mxCell id="Ya21m_2HcjdQh0_R0l_v-24" value="Action" style="shape=transparent;align=left;fontStyle=1;whiteSpace=wrap;html=1;" vertex="1" parent="Ya21m_2HcjdQh0_R0l_v-23">
          <mxGeometry x="22.5" width="56.25" height="30" as="geometry" />
        </mxCell>
        <mxCell id="Ya21m_2HcjdQh0_R0l_v-25" value="" style="strokeWidth=1;html=1;shadow=0;dashed=0;shape=mxgraph.android.contextual_action_bar_landscape_white;fillColor=#E6E6E6;" vertex="1" parent="1">
          <mxGeometry x="260" y="480" width="180" height="30" as="geometry" />
        </mxCell>
        <mxCell id="Ya21m_2HcjdQh0_R0l_v-26" value="Action" style="shape=transparent;align=left;fontStyle=1;whiteSpace=wrap;html=1;" vertex="1" parent="Ya21m_2HcjdQh0_R0l_v-25">
          <mxGeometry x="22.5" width="56.25" height="30" as="geometry" />
        </mxCell>
        <mxCell id="Ya21m_2HcjdQh0_R0l_v-27" value="" style="strokeWidth=1;html=1;shadow=0;dashed=0;shape=mxgraph.android.rrect;rSize=0;fillColor=#444444;strokeColor=none;" vertex="1" parent="1">
          <mxGeometry x="260" y="280" width="180" height="20" as="geometry" />
        </mxCell>
        <mxCell id="Ya21m_2HcjdQh0_R0l_v-28" value="Prev" style="strokeWidth=1;html=1;shadow=0;dashed=0;shape=mxgraph.android.anchor;align=left;fontColor=#FFFFFF;" vertex="1" parent="Ya21m_2HcjdQh0_R0l_v-27">
          <mxGeometry width="45" height="20" as="geometry" />
        </mxCell>
        <mxCell id="Ya21m_2HcjdQh0_R0l_v-29" value="{{Today}}" style="strokeWidth=1;html=1;shadow=0;dashed=0;shape=mxgraph.android.anchor;fontColor=#FFFFFF;" vertex="1" parent="Ya21m_2HcjdQh0_R0l_v-27">
          <mxGeometry x="45" width="90" height="20" as="geometry" />
        </mxCell>
        <mxCell id="Ya21m_2HcjdQh0_R0l_v-30" value="Option" style="strokeWidth=1;html=1;shadow=0;dashed=0;shape=mxgraph.android.anchor;align=right;fontColor=#FFFFFF;" vertex="1" parent="Ya21m_2HcjdQh0_R0l_v-27">
          <mxGeometry x="135" width="45" height="20" as="geometry" />
        </mxCell>
        <mxCell id="Ya21m_2HcjdQh0_R0l_v-31" value="input" style="strokeWidth=1;html=1;shadow=0;dashed=0;shape=mxgraph.android.textfield;align=center;strokeColor=#999999;pointerEvents=1" vertex="1" parent="1">
          <mxGeometry x="270" y="560" width="120" height="30" as="geometry" />
        </mxCell>
        <mxCell id="Ya21m_2HcjdQh0_R0l_v-32" value="Send" style="rounded=1;html=1;shadow=0;dashed=0;whiteSpace=wrap;fontSize=10;fillColor=#666666;align=center;strokeColor=#4D4D4D;fontColor=#ffffff;" vertex="1" parent="1">
          <mxGeometry x="390" y="570" width="50" height="20" as="geometry" />
        </mxCell>
      </root>
    </mxGraphModel>
  </diagram>
</mxfile>
